{
	"asset":{
		"generator":"Khronos glTF Blender I/O v3.5.30",
		"version":"2.0"
	},
	"extensionsUsed":[
		"KHR_materials_specular",
		"KHR_materials_ior"
	],
	"scene":0,
	"scenes":[
		{
			"name":"Scene",
			"nodes":[
				0,
				1,
				2,
				3,
				4
			]
		}
	],
	"nodes":[
		{
			"mesh":0,
			"name":"Tomatoes",
			"translation":[
				0.002432623878121376,
				0.05571778118610382,
				0.06639482825994492
			]
		},
		{
			"mesh":1,
			"name":"Salami",
			"translation":[
				0.18332278728485107,
				0.046272799372673035,
				0.08677096664905548
			]
		},
		{
			"mesh":2,
			"name":"Leaves",
			"translation":[
				0.00898544117808342,
				0.061605095863342285,
				-0.015101147815585136
			]
		},
		{
			"mesh":3,
			"name":"Pizza",
			"translation":[
				0,
				-0.005483100190758705,
				0
			]
		},
		{
			"mesh":4,
			"name":"Cheese",
			"translation":[
				0.002890399657189846,
				0.040757179260253906,
				-0.0004035830497741699
			]
		}
	],
	"materials":[
		{
			"doubleSided":true,
			"name":"Tomato",
			"normalTexture":{
				"index":0,
				"scale":0.6499999761581421
			},
			"pbrMetallicRoughness":{
				"baseColorTexture":{
					"index":1
				},
				"metallicFactor":0,
				"metallicRoughnessTexture":{
					"index":2
				}
			}
		},
		{
			"doubleSided":true,
			"name":"Salami",
			"normalTexture":{
				"index":3,
				"scale":0.4999999701976776
			},
			"pbrMetallicRoughness":{
				"baseColorTexture":{
					"index":4
				},
				"metallicFactor":0,
				"metallicRoughnessTexture":{
					"index":5
				}
			}
		},
		{
			"alphaCutoff":0.5,
			"alphaMode":"MASK",
			"doubleSided":true,
			"name":"Leaf",
			"pbrMetallicRoughness":{
				"baseColorTexture":{
					"index":6
				},
				"metallicFactor":0,
				"metallicRoughnessTexture":{
					"index":7
				}
			}
		},
		{
			"doubleSided":true,
			"extensions":{
				"KHR_materials_specular":{
					"specularColorFactor":[
						0.8299751509200964,
						0.8299751509200964,
						0.8299751509200964
					]
				},
				"KHR_materials_ior":{
					"ior":1.4500000476837158
				}
			},
			"name":"Pizza",
			"normalTexture":{
				"index":8,
				"scale":0.5
			},
			"pbrMetallicRoughness":{
				"baseColorTexture":{
					"index":9
				},
				"metallicFactor":0,
				"metallicRoughnessTexture":{
					"index":10
				}
			}
		},
		{
			"doubleSided":true,
			"name":"Cheese",
			"normalTexture":{
				"index":11,
				"scale":0.7999999523162842
			},
			"pbrMetallicRoughness":{
				"baseColorTexture":{
					"index":12
				},
				"metallicFactor":0,
				"metallicRoughnessTexture":{
					"index":13
				}
			}
		}
	],
	"meshes":[
		{
			"name":"Circle.001",
			"primitives":[
				{
					"attributes":{
						"POSITION":0,
						"TEXCOORD_0":1,
						"NORMAL":2
					},
					"indices":3,
					"material":0
				}
			]
		},
		{
			"name":"Circle.006",
			"primitives":[
				{
					"attributes":{
						"POSITION":4,
						"TEXCOORD_0":5,
						"NORMAL":6
					},
					"indices":7,
					"material":1
				}
			]
		},
		{
			"name":"Plane.001",
			"primitives":[
				{
					"attributes":{
						"POSITION":8,
						"TEXCOORD_0":9,
						"NORMAL":10
					},
					"indices":11,
					"material":2
				}
			]
		},
		{
			"name":"Pizza_OBJ.002",
			"primitives":[
				{
					"attributes":{
						"POSITION":12,
						"TEXCOORD_0":13,
						"NORMAL":14
					},
					"indices":15,
					"material":3
				}
			]
		},
		{
			"name":"Plane.000",
			"primitives":[
				{
					"attributes":{
						"POSITION":16,
						"TEXCOORD_0":17,
						"NORMAL":18
					},
					"indices":19,
					"material":4
				}
			]
		}
	],
	"textures":[
		{
			"sampler":0,
			"source":0
		},
		{
			"sampler":0,
			"source":1
		},
		{
			"sampler":0,
			"source":2
		},
		{
			"sampler":0,
			"source":3
		},
		{
			"sampler":0,
			"source":4
		},
		{
			"sampler":0,
			"source":5
		},
		{
			"sampler":0,
			"source":6
		},
		{
			"sampler":0,
			"source":7
		},
		{
			"sampler":0,
			"source":8
		},
		{
			"sampler":0,
			"source":9
		},
		{
			"sampler":0,
			"source":10
		},
		{
			"sampler":0,
			"source":11
		},
		{
			"sampler":0,
			"source":12
		},
		{
			"sampler":0,
			"source":13
		}
	],
	"images":[
		{
			"mimeType":"image/png",
			"name":"Tom_norm",
			"uri":"Tom_norm.png"
		},
		{
			"mimeType":"image/png",
			"name":"Tom_diff",
			"uri":"Tom_diff.png"
		},
		{
			"mimeType":"image/png",
			"name":"Tom_rough",
			"uri":"Tom_rough.png"
		},
		{
			"mimeType":"image/png",
			"name":"Salami_norm",
			"uri":"Salami_norm.png"
		},
		{
			"mimeType":"image/png",
			"name":"Salami_diff",
			"uri":"Salami_diff.png"
		},
		{
			"mimeType":"image/png",
			"name":"Salami_rough",
			"uri":"Salami_rough.png"
		},
		{
			"mimeType":"image/png",
			"name":"Leaf_diff",
			"uri":"Leaf_diff.png"
		},
		{
			"mimeType":"image/png",
			"name":"Image",
			"uri":"Image.png"
		},
		{
			"mimeType":"image/png",
			"name":"Pizza_norm",
			"uri":"Pizza_norm.png"
		},
		{
			"mimeType":"image/png",
			"name":"Pizza_diff",
			"uri":"Pizza_diff.png"
		},
		{
			"mimeType":"image/png",
			"name":"Pizza_rough",
			"uri":"Pizza_rough.png"
		},
		{
			"mimeType":"image/png",
			"name":"Cheese_norm",
			"uri":"Cheese_norm.png"
		},
		{
			"mimeType":"image/png",
			"name":"Cheese_diff",
			"uri":"Cheese_diff.png"
		},
		{
			"mimeType":"image/png",
			"name":"Cheese_rough",
			"uri":"Cheese_rough.png"
		}
	],
	"accessors":[
		{
			"bufferView":0,
			"componentType":5126,
			"count":1974,
			"max":[
				0.22835318744182587,
				0.004520452581346035,
				0.1289593130350113
			],
			"min":[
				-0.17541073262691498,
				-0.010680554434657097,
				-0.26124489307403564
			],
			"type":"VEC3"
		},
		{
			"bufferView":1,
			"componentType":5126,
			"count":1974,
			"type":"VEC2"
		},
		{
			"bufferView":2,
			"componentType":5126,
			"count":1974,
			"type":"VEC3"
		},
		{
			"bufferView":3,
			"componentType":5123,
			"count":8988,
			"type":"SCALAR"
		},
		{
			"bufferView":4,
			"componentType":5126,
			"count":3442,
			"max":[
				0.04064597934484482,
				0.017663167789578438,
				0.12405869364738464
			],
			"min":[
				-0.42697569727897644,
				-0.005229375325143337,
				-0.31589895486831665
			],
			"type":"VEC3"
		},
		{
			"bufferView":5,
			"componentType":5126,
			"count":3442,
			"type":"VEC2"
		},
		{
			"bufferView":6,
			"componentType":5126,
			"count":3442,
			"type":"VEC3"
		},
		{
			"bufferView":7,
			"componentType":5123,
			"count":17088,
			"type":"SCALAR"
		},
		{
			"bufferView":8,
			"componentType":5126,
			"count":162,
			"max":[
				0.08339008688926697,
				0.028607714921236038,
				0.06204131245613098
			],
			"min":[
				-0.06550947576761246,
				-0.009739651344716549,
				-0.05475042015314102
			],
			"type":"VEC3"
		},
		{
			"bufferView":9,
			"componentType":5126,
			"count":162,
			"type":"VEC2"
		},
		{
			"bufferView":10,
			"componentType":5126,
			"count":162,
			"type":"VEC3"
		},
		{
			"bufferView":11,
			"componentType":5123,
			"count":576,
			"type":"SCALAR"
		},
		{
			"bufferView":12,
			"componentType":5126,
			"count":647,
			"max":[
				0.2799263000488281,
				0.047691795974969864,
				0.28310903906822205
			],
			"min":[
				-0.2801066040992737,
				0.017384730279445648,
				-0.2825179100036621
			],
			"type":"VEC3"
		},
		{
			"bufferView":13,
			"componentType":5126,
			"count":647,
			"type":"VEC2"
		},
		{
			"bufferView":14,
			"componentType":5126,
			"count":647,
			"type":"VEC3"
		},
		{
			"bufferView":15,
			"componentType":5123,
			"count":3642,
			"type":"SCALAR"
		},
		{
			"bufferView":16,
			"componentType":5126,
			"count":1792,
			"max":[
				0.2580077648162842,
				0.016423655673861504,
				0.26087355613708496
			],
			"min":[
				-0.26361119747161865,
				-0.009716971777379513,
				-0.25993940234184265
			],
			"type":"VEC3"
		},
		{
			"bufferView":17,
			"componentType":5126,
			"count":1792,
			"type":"VEC2"
		},
		{
			"bufferView":18,
			"componentType":5126,
			"count":1792,
			"type":"VEC3"
		},
		{
			"bufferView":19,
			"componentType":5123,
			"count":9792,
			"type":"SCALAR"
		}
	],
	"bufferViews":[
		{
			"buffer":0,
			"byteLength":23688,
			"byteOffset":0,
			"target":34962
		},
		{
			"buffer":0,
			"byteLength":15792,
			"byteOffset":23688,
			"target":34962
		},
		{
			"buffer":0,
			"byteLength":23688,
			"byteOffset":39480,
			"target":34962
		},
		{
			"buffer":0,
			"byteLength":17976,
			"byteOffset":63168,
			"target":34963
		},
		{
			"buffer":0,
			"byteLength":41304,
			"byteOffset":81144,
			"target":34962
		},
		{
			"buffer":0,
			"byteLength":27536,
			"byteOffset":122448,
			"target":34962
		},
		{
			"buffer":0,
			"byteLength":41304,
			"byteOffset":149984,
			"target":34962
		},
		{
			"buffer":0,
			"byteLength":34176,
			"byteOffset":191288,
			"target":34963
		},
		{
			"buffer":0,
			"byteLength":1944,
			"byteOffset":225464,
			"target":34962
		},
		{
			"buffer":0,
			"byteLength":1296,
			"byteOffset":227408,
			"target":34962
		},
		{
			"buffer":0,
			"byteLength":1944,
			"byteOffset":228704,
			"target":34962
		},
		{
			"buffer":0,
			"byteLength":1152,
			"byteOffset":230648,
			"target":34963
		},
		{
			"buffer":0,
			"byteLength":7764,
			"byteOffset":231800,
			"target":34962
		},
		{
			"buffer":0,
			"byteLength":5176,
			"byteOffset":239564,
			"target":34962
		},
		{
			"buffer":0,
			"byteLength":7764,
			"byteOffset":244740,
			"target":34962
		},
		{
			"buffer":0,
			"byteLength":7284,
			"byteOffset":252504,
			"target":34963
		},
		{
			"buffer":0,
			"byteLength":21504,
			"byteOffset":259788,
			"target":34962
		},
		{
			"buffer":0,
			"byteLength":14336,
			"byteOffset":281292,
			"target":34962
		},
		{
			"buffer":0,
			"byteLength":21504,
			"byteOffset":295628,
			"target":34962
		},
		{
			"buffer":0,
			"byteLength":19584,
			"byteOffset":317132,
			"target":34963
		}
	],
	"samplers":[
		{
			"magFilter":9729,
			"minFilter":9987
		}
	],
	"buffers":[
		{
			"byteLength":336716,
			"uri":"pizza.bin"
		}
	]
}
