{
	"asset":{
		"generator":"Khronos glTF Blender I/O v3.5.30",
		"version":"2.0"
	},
	"extensionsUsed":[
		"KHR_materials_specular",
		"KHR_materials_ior"
	],
	"scene":0,
	"scenes":[
		{
			"name":"Scene",
			"nodes":[
				0,
				1,
				2,
				3,
				4,
				5
			]
		}
	],
	"nodes":[
		{
			"mesh":0,
			"name":"Cheese",
			"translation":[
				0.0028904001228511333,
				0.040757179260253906,
				-0.000403582991566509
			]
		},
		{
			"mesh":1,
			"name":"Wood_deck",
			"translation":[
				0.0010225659934803843,
				-0.005145811941474676,
				0.00041703900205902755
			]
		},
		{
			"mesh":2,
			"name":"Pizza",
			"translation":[
				0,
				-0.005483100190758705,
				0
			]
		},
		{
			"mesh":3,
			"name":"Leaves",
			"translation":[
				0.00898544117808342,
				0.061605099588632584,
				-0.015101149678230286
			]
		},
		{
			"mesh":4,
			"name":"Salami",
			"translation":[
				0.18332280218601227,
				0.046272799372673035,
				0.08677096664905548
			]
		},
		{
			"mesh":5,
			"name":"Tomatoes",
			"translation":[
				0.002432623878121376,
				0.05571778118610382,
				0.06639482825994492
			]
		}
	],
	"materials":[
		{
			"doubleSided":true,
			"extensions":{
				"KHR_materials_specular":{
					"specularColorFactor":[
						0,
						0,
						0
					]
				},
				"KHR_materials_ior":{
					"ior":1.4499999284744263
				}
			},
			"name":"Cheese",
			"pbrMetallicRoughness":{
				"baseColorTexture":{
					"index":0
				},
				"metallicFactor":0,
				"roughnessFactor":0.5
			}
		},
		{
			"doubleSided":true,
			"extensions":{
				"KHR_materials_specular":{
					"specularColorFactor":[
						0,
						0,
						0
					]
				},
				"KHR_materials_ior":{
					"ior":1.4499999284744263
				}
			},
			"name":"Deck",
			"pbrMetallicRoughness":{
				"baseColorTexture":{
					"index":1
				},
				"metallicFactor":0,
				"roughnessFactor":0.5
			}
		},
		{
			"doubleSided":true,
			"extensions":{
				"KHR_materials_specular":{
					"specularColorFactor":[
						0,
						0,
						0
					]
				},
				"KHR_materials_ior":{
					"ior":1.4499999284744263
				}
			},
			"name":"Pizza",
			"pbrMetallicRoughness":{
				"baseColorTexture":{
					"index":2
				},
				"metallicFactor":0,
				"roughnessFactor":0.5
			}
		},
		{
			"doubleSided":true,
			"extensions":{
				"KHR_materials_specular":{
					"specularColorFactor":[
						0,
						0,
						0
					]
				},
				"KHR_materials_ior":{
					"ior":1.4499999284744263
				}
			},
			"name":"Leaf",
			"pbrMetallicRoughness":{
				"baseColorTexture":{
					"index":3
				},
				"metallicFactor":0,
				"roughnessFactor":0.5
			}
		},
		{
			"doubleSided":true,
			"extensions":{
				"KHR_materials_specular":{
					"specularColorFactor":[
						0,
						0,
						0
					]
				},
				"KHR_materials_ior":{
					"ior":1.4499999284744263
				}
			},
			"name":"Salami",
			"pbrMetallicRoughness":{
				"baseColorTexture":{
					"index":4
				},
				"metallicFactor":0,
				"roughnessFactor":0.5
			}
		},
		{
			"doubleSided":true,
			"extensions":{
				"KHR_materials_specular":{
					"specularColorFactor":[
						0,
						0,
						0
					]
				},
				"KHR_materials_ior":{
					"ior":1.4499999284744263
				}
			},
			"name":"Tomato",
			"pbrMetallicRoughness":{
				"baseColorTexture":{
					"index":5
				},
				"metallicFactor":0,
				"roughnessFactor":0.5
			}
		}
	],
	"meshes":[
		{
			"name":"Plane.000",
			"primitives":[
				{
					"attributes":{
						"POSITION":0,
						"TEXCOORD_0":1,
						"NORMAL":2
					},
					"indices":3,
					"material":0
				}
			]
		},
		{
			"name":"Circle",
			"primitives":[
				{
					"attributes":{
						"POSITION":4,
						"TEXCOORD_0":5,
						"NORMAL":6
					},
					"indices":7,
					"material":1
				}
			]
		},
		{
			"name":"Pizza_OBJ.002",
			"primitives":[
				{
					"attributes":{
						"POSITION":8,
						"TEXCOORD_0":9,
						"NORMAL":10
					},
					"indices":11,
					"material":2
				}
			]
		},
		{
			"name":"Plane.001",
			"primitives":[
				{
					"attributes":{
						"POSITION":12,
						"TEXCOORD_0":13,
						"NORMAL":14
					},
					"indices":15,
					"material":3
				}
			]
		},
		{
			"name":"Circle.006",
			"primitives":[
				{
					"attributes":{
						"POSITION":16,
						"TEXCOORD_0":17,
						"NORMAL":18
					},
					"indices":19,
					"material":4
				}
			]
		},
		{
			"name":"Circle.001",
			"primitives":[
				{
					"attributes":{
						"POSITION":20,
						"TEXCOORD_0":21,
						"NORMAL":22
					},
					"indices":23,
					"material":5
				}
			]
		}
	],
	"textures":[
		{
			"sampler":0,
			"source":0
		},
		{
			"sampler":0,
			"source":1
		},
		{
			"sampler":0,
			"source":2
		},
		{
			"sampler":0,
			"source":3
		},
		{
			"sampler":0,
			"source":4
		},
		{
			"sampler":0,
			"source":5
		}
	],
	"images":[
		{
			"mimeType":"image/png",
			"name":"Cheese_diff",
			"uri":"Cheese_diff.png"
		},
		{
			"mimeType":"image/png",
			"name":"Wood_diff",
			"uri":"Wood_diff.png"
		},
		{
			"mimeType":"image/png",
			"name":"Pizza_diff",
			"uri":"Pizza_diff.png"
		},
		{
			"mimeType":"image/png",
			"name":"Leaf_diff",
			"uri":"Leaf_diff.png"
		},
		{
			"mimeType":"image/png",
			"name":"Salami_diff",
			"uri":"Salami_diff.png"
		},
		{
			"mimeType":"image/png",
			"name":"Tom_diff",
			"uri":"Tom_diff.png"
		}
	],
	"accessors":[
		{
			"bufferView":0,
			"componentType":5126,
			"count":1795,
			"max":[
				0.25800779461860657,
				0.01642364077270031,
				0.26087361574172974
			],
			"min":[
				-0.26361119747161865,
				-0.009716928005218506,
				-0.25993940234184265
			],
			"type":"VEC3"
		},
		{
			"bufferView":1,
			"componentType":5126,
			"count":1795,
			"type":"VEC2"
		},
		{
			"bufferView":2,
			"componentType":5126,
			"count":1795,
			"type":"VEC3"
		},
		{
			"bufferView":3,
			"componentType":5123,
			"count":9792,
			"type":"SCALAR"
		},
		{
			"bufferView":4,
			"componentType":5126,
			"count":490,
			"max":[
				0.3026486933231354,
				0.019239060580730438,
				0.3026486933231354
			],
			"min":[
				-0.3026486933231354,
				0,
				-0.3026486933231354
			],
			"type":"VEC3"
		},
		{
			"bufferView":5,
			"componentType":5126,
			"count":490,
			"type":"VEC2"
		},
		{
			"bufferView":6,
			"componentType":5126,
			"count":490,
			"type":"VEC3"
		},
		{
			"bufferView":7,
			"componentType":5123,
			"count":2496,
			"type":"SCALAR"
		},
		{
			"bufferView":8,
			"componentType":5126,
			"count":647,
			"max":[
				0.2799263000488281,
				0.04769175872206688,
				0.28310900926589966
			],
			"min":[
				-0.2801066040992737,
				0.01738470047712326,
				-0.2825179100036621
			],
			"type":"VEC3"
		},
		{
			"bufferView":9,
			"componentType":5126,
			"count":647,
			"type":"VEC2"
		},
		{
			"bufferView":10,
			"componentType":5126,
			"count":647,
			"type":"VEC3"
		},
		{
			"bufferView":11,
			"componentType":5123,
			"count":3642,
			"type":"SCALAR"
		},
		{
			"bufferView":12,
			"componentType":5126,
			"count":162,
			"max":[
				0.08339004963636398,
				0.02860765904188156,
				0.062041278928518295
			],
			"min":[
				-0.06550943106412888,
				-0.009739636443555355,
				-0.05475037917494774
			],
			"type":"VEC3"
		},
		{
			"bufferView":13,
			"componentType":5126,
			"count":162,
			"type":"VEC2"
		},
		{
			"bufferView":14,
			"componentType":5126,
			"count":162,
			"type":"VEC3"
		},
		{
			"bufferView":15,
			"componentType":5123,
			"count":576,
			"type":"SCALAR"
		},
		{
			"bufferView":16,
			"componentType":5126,
			"count":3442,
			"max":[
				0.04064594954252243,
				0.017663119360804558,
				0.12405870109796524
			],
			"min":[
				-0.42697569727897644,
				-0.0052293529734015465,
				-0.31589898467063904
			],
			"type":"VEC3"
		},
		{
			"bufferView":17,
			"componentType":5126,
			"count":3442,
			"type":"VEC2"
		},
		{
			"bufferView":18,
			"componentType":5126,
			"count":3442,
			"type":"VEC3"
		},
		{
			"bufferView":19,
			"componentType":5123,
			"count":17088,
			"type":"SCALAR"
		},
		{
			"bufferView":20,
			"componentType":5126,
			"count":2389,
			"max":[
				0.22835320234298706,
				0.004520415794104338,
				0.1289592981338501
			],
			"min":[
				-0.1754107028245926,
				-0.010680549778044224,
				-0.26124489307403564
			],
			"type":"VEC3"
		},
		{
			"bufferView":21,
			"componentType":5126,
			"count":2389,
			"type":"VEC2"
		},
		{
			"bufferView":22,
			"componentType":5126,
			"count":2389,
			"type":"VEC3"
		},
		{
			"bufferView":23,
			"componentType":5123,
			"count":8988,
			"type":"SCALAR"
		}
	],
	"bufferViews":[
		{
			"buffer":0,
			"byteLength":21540,
			"byteOffset":0,
			"target":34962
		},
		{
			"buffer":0,
			"byteLength":14360,
			"byteOffset":21540,
			"target":34962
		},
		{
			"buffer":0,
			"byteLength":21540,
			"byteOffset":35900,
			"target":34962
		},
		{
			"buffer":0,
			"byteLength":19584,
			"byteOffset":57440,
			"target":34963
		},
		{
			"buffer":0,
			"byteLength":5880,
			"byteOffset":77024,
			"target":34962
		},
		{
			"buffer":0,
			"byteLength":3920,
			"byteOffset":82904,
			"target":34962
		},
		{
			"buffer":0,
			"byteLength":5880,
			"byteOffset":86824,
			"target":34962
		},
		{
			"buffer":0,
			"byteLength":4992,
			"byteOffset":92704,
			"target":34963
		},
		{
			"buffer":0,
			"byteLength":7764,
			"byteOffset":97696,
			"target":34962
		},
		{
			"buffer":0,
			"byteLength":5176,
			"byteOffset":105460,
			"target":34962
		},
		{
			"buffer":0,
			"byteLength":7764,
			"byteOffset":110636,
			"target":34962
		},
		{
			"buffer":0,
			"byteLength":7284,
			"byteOffset":118400,
			"target":34963
		},
		{
			"buffer":0,
			"byteLength":1944,
			"byteOffset":125684,
			"target":34962
		},
		{
			"buffer":0,
			"byteLength":1296,
			"byteOffset":127628,
			"target":34962
		},
		{
			"buffer":0,
			"byteLength":1944,
			"byteOffset":128924,
			"target":34962
		},
		{
			"buffer":0,
			"byteLength":1152,
			"byteOffset":130868,
			"target":34963
		},
		{
			"buffer":0,
			"byteLength":41304,
			"byteOffset":132020,
			"target":34962
		},
		{
			"buffer":0,
			"byteLength":27536,
			"byteOffset":173324,
			"target":34962
		},
		{
			"buffer":0,
			"byteLength":41304,
			"byteOffset":200860,
			"target":34962
		},
		{
			"buffer":0,
			"byteLength":34176,
			"byteOffset":242164,
			"target":34963
		},
		{
			"buffer":0,
			"byteLength":28668,
			"byteOffset":276340,
			"target":34962
		},
		{
			"buffer":0,
			"byteLength":19112,
			"byteOffset":305008,
			"target":34962
		},
		{
			"buffer":0,
			"byteLength":28668,
			"byteOffset":324120,
			"target":34962
		},
		{
			"buffer":0,
			"byteLength":17976,
			"byteOffset":352788,
			"target":34963
		}
	],
	"samplers":[
		{
			"magFilter":9729,
			"minFilter":9987
		}
	],
	"buffers":[
		{
			"byteLength":370764,
			"uri":"pizza.bin"
		}
	]
}
