{"accessors" : [{"bufferView" : 0, "byteOffset" : 0, "componentType" : 5123, "count" : 38016, "type" : "SCALAR", "max" : [38015], "min" : [0]}, {"bufferView" : 1, "byteOffset" : 0, "componentType" : 5126, "count" : 38016, "type" : "VEC3", "max" : [13.0111722946167, 13.073193550109863, 1.155962347984314], "min" : [-12.979272842407227, -13.013337135314941, -0.029802419245243073], "name" : "POSITION"}, {"bufferView" : 1, "byteOffset" : 12, "componentType" : 5126, "count" : 38016, "type" : "VEC3", "max" : [0.9997527003288269, 0.9974899888038635, 1.0000039339065552], "min" : [-0.999817430973053, -0.9987280964851379, -1.0000040531158447], "name" : "NORMAL"}, {"bufferView" : 1, "byteOffset" : 24, "componentType" : 5126, "count" : 38016, "type" : "VEC3", "max" : [0.6941176652908325, 0.1098039299249649, 0.5843137502670288], "min" : [0.6941176652908325, 0.1098039299249649, 0.5843137502670288], "name" : "COLOR_0"}, {"bufferView" : 1, "byteOffset" : 36, "componentType" : 5126, "count" : 38016, "type" : "VEC2", "max" : [0.9896162748336792, -0.0028529763221740723], "min" : [0.010383814573287964, -0.9971470832824707], "name" : "TEXCOORD_0"}, {"bufferView" : 0, "byteOffset" : 76032, "componentType" : 5123, "count" : 30, "type" : "SCALAR", "max" : [29], "min" : [0]}, {"bufferView" : 2, "byteOffset" : 0, "componentType" : 5126, "count" : 30, "type" : "VEC3", "max" : [239.52879333496094, 182.1839599609375, 171.6381072998047], "min" : [-155.9794158935547, -182.1839599609375, 0], "name" : "POSITION"}, {"bufferView" : 2, "byteOffset" : 12, "componentType" : 5126, "count" : 30, "type" : "VEC3", "max" : [0, 0, 1.0000044107437134], "min" : [-0.9082862734794617, 0, 0.41835951805114746], "name" : "NORMAL"}, {"bufferView" : 2, "byteOffset" : 24, "componentType" : 5126, "count" : 30, "type" : "VEC3", "max" : [0.6000000238418579, 0.8941177129745483, 0.6000000238418579], "min" : [0.6000000238418579, 0.8941177129745483, 0.6000000238418579], "name" : "COLOR_0"}, {"bufferView" : 2, "byteOffset" : 36, "componentType" : 5126, "count" : 30, "type" : "VEC2", "max" : [1, -0], "min" : [0, -1], "name" : "TEXCOORD_0"}, {"bufferView" : 0, "byteOffset" : 76092, "componentType" : 5123, "count" : 636, "type" : "SCALAR", "max" : [635], "min" : [0]}, {"bufferView" : 3, "byteOffset" : 0, "componentType" : 5126, "count" : 636, "type" : "VEC3", "max" : [14.915766716003418, 14.689163208007812, 0.884770393371582], "min" : [-14.915766716003418, -14.689164161682129, 0], "name" : "POSITION"}, {"bufferView" : 3, "byteOffset" : 12, "componentType" : 5126, "count" : 636, "type" : "VEC3", "max" : [0.7893118858337402, 0.777320384979248, 1.0000044107437134], "min" : [-0.7893118858337402, -0.7773204445838928, -1.0000044107437134], "name" : "NORMAL"}, {"bufferView" : 3, "byteOffset" : 24, "componentType" : 5126, "count" : 636, "type" : "VEC3", "max" : [0.10588236153125763, 0.6941176652908325, 0.10588236153125763], "min" : [0.10588236153125763, 0.6941176652908325, 0.10588236153125763], "name" : "COLOR_0"}, {"bufferView" : 3, "byteOffset" : 36, "componentType" : 5126, "count" : 636, "type" : "VEC2", "max" : [1.0277777910232544, -0], "min" : [0.007596135139465332, -1], "name" : "TEXCOORD_0"}, {"bufferView" : 0, "byteOffset" : 77364, "componentType" : 5123, "count" : 96, "type" : "SCALAR", "max" : [95], "min" : [0]}, {"bufferView" : 4, "byteOffset" : 0, "componentType" : 5126, "count" : 96, "type" : "VEC3", "max" : [50, 50, 0], "min" : [-50, -50, 0], "name" : "POSITION"}, {"bufferView" : 4, "byteOffset" : 12, "componentType" : 5126, "count" : 96, "type" : "VEC3", "max" : [0, 0, 1.0000044107437134], "min" : [0, 0, 1.0000044107437134], "name" : "NORMAL"}, {"bufferView" : 4, "byteOffset" : 24, "componentType" : 5126, "count" : 96, "type" : "VEC3", "max" : [0.0313725508749485, 0.2392157018184662, 0.5411764979362488], "min" : [0.0313725508749485, 0.2392157018184662, 0.5411764979362488], "name" : "COLOR_0"}, {"bufferView" : 4, "byteOffset" : 36, "componentType" : 5126, "count" : 96, "type" : "VEC2", "max" : [0.9995005130767822, -0.1642952561378479], "min" : [0.0004994869232177734, -0.8357047438621521], "name" : "TEXCOORD_0"}], "asset" : {"generator" : "Aspose.3D 23.4.0", "version" : "2.0"}, "buffers" : [{"uri" : "data:application/octet-stream;base64,", "byteLength" : 1783808}], "bufferViews" : [{"buffer" : 0, "byteOffset" : 0, "byteLength" : 77556, "target" : 34963}, {"buffer" : 0, "byteOffset" : 77560, "byteLength" : 1672704, "byteStride" : 44, "target" : 34962}, {"buffer" : 0, "byteOffset" : 1750268, "byteLength" : 1320, "byteStride" : 44, "target" : 34962}, {"buffer" : 0, "byteOffset" : 1751592, "byteLength" : 27984, "byteStride" : 44, "target" : 34962}, {"buffer" : 0, "byteOffset" : 1779580, "byteLength" : 4224, "byteStride" : 44, "target" : 34962}], "cameras" : [{"perspective" : {"aspectRatio" : 1.3333333333333333, "yfov" : 0.43833943764363487, "zfar" : 10000, "znear" : 0.10000000149011612}, "type" : "perspective", "name" : "Camera01"}], "images" : [{"uri" : "./_02___Default/PepperoniPizza-full.jpg"}, {"uri" : "./tovaglia/tovaglia.jpg"}], "materials" : [{"name" : "a02___Default", "pbrMetallicRoughness" : {"baseColorFactor" : [0.5882350206375122, 0.5882350206375122, 0.5882350206375122, 1], "baseColorTexture" : {"index" : 0, "texCoord" : 0}, "metallicFactor" : 0, "roughnessFactor" : 0}, "emissiveFactor" : [0, 0, 0], "alphaMode" : "OPAQUE", "doubleSided" : false}, {"name" : "a24___Default", "pbrMetallicRoughness" : {"baseColorFactor" : [0.5882350206375122, 0.5882350206375122, 0.5882350206375122, 1], "metallicFactor" : 0, "roughnessFactor" : 0}, "emissiveFactor" : [0, 0, 0], "alphaMode" : "OPAQUE", "doubleSided" : false}, {"name" : "a09___Default", "pbrMetallicRoughness" : {"baseColorFactor" : [0.8823530077934265, 0.8823530077934265, 0.8823530077934265, 1], "metallicFactor" : 0, "roughnessFactor" : 0}, "emissiveFactor" : [0, 0, 0], "alphaMode" : "OPAQUE", "doubleSided" : false}, {"name" : "tovaglia", "pbrMetallicRoughness" : {"baseColorFactor" : [0.5882350206375122, 0.5882350206375122, 0.5882350206375122, 1], "baseColorTexture" : {"index" : 1, "texCoord" : 0}, "metallicFactor" : 0, "roughnessFactor" : 0}, "emissiveFactor" : [0, 0, 0], "alphaMode" : "OPAQUE", "doubleSided" : false}], "meshes" : [{"primitives" : [{"attributes" : {"POSITION" : 1, "NORMAL" : 2, "COLOR_0" : 3, "TEXCOORD_0" : 4}, "indices" : 0, "material" : 0, "mode" : 4}], "name" : "Cylinder01"}, {"primitives" : [{"attributes" : {"POSITION" : 6, "NORMAL" : 7, "COLOR_0" : 8, "TEXCOORD_0" : 9}, "indices" : 5, "material" : 1, "mode" : 4}], "name" : "Plane01"}, {"primitives" : [{"attributes" : {"POSITION" : 11, "NORMAL" : 12, "COLOR_0" : 13, "TEXCOORD_0" : 14}, "indices" : 10, "material" : 2, "mode" : 4}], "name" : "Cylinder02"}, {"primitives" : [{"attributes" : {"POSITION" : 16, "NORMAL" : 17, "COLOR_0" : 18, "TEXCOORD_0" : 19}, "indices" : 15, "material" : 3, "mode" : 4}], "name" : "Plane02"}], "nodes" : [{"matrix" : [1, 0, 0, 0, 0, 1, 0, 0, 0, 0, 1, 0, 43.37580490112305, -2.657139778137207, 0.25262451171875, 1], "mesh" : 0, "name" : "Cylinder01"}, {"matrix" : [1, 0, 0, 0, 0, 1.6093288660049438, 0, 0, 0, 0, 1, 0, 69.4736557006836, -3.431549072265625, 0, 1], "mesh" : 1, "name" : "Plane01"}, {"matrix" : [0.9810172915458679, 0, 0, 0, 0, 0.9810172915458679, 0, 0, 0, 0, 0.9810172915458679, 0, 43.37580490112305, -2.657139778137207, 0, 1], "mesh" : 2, "name" : "Cylinder02"}, {"matrix" : [1, 0, 0, 0, 0, 1, 0, 0, 0, 0, 1, 0, 44.117645263671875, -1.9852924346923828, 0.32110595703125, 1], "mesh" : 3, "name" : "Plane02"}, {"camera" : 0, "children" : [0, 1, 2, 3], "name" : "AI57_004"}], "samplers" : [{"magFilter" : 9729, "minFilter" : 9729, "wrapS" : 10497, "wrapT" : 10497}, {"magFilter" : 9729, "minFilter" : 9729, "wrapS" : 10497, "wrapT" : 10497}], "scene" : 0, "scenes" : [{"nodes" : [4]}], "textures" : [{"sampler" : 0, "source" : 0, "name" : ""}, {"sampler" : 1, "source" : 1, "name" : ""}]}