{"accessors" : [{"bufferView" : 0, "byteOffset" : 0, "componentType" : 5123, "count" : 3024, "type" : "SCALAR", "max" : [3023], "min" : [0]}, {"bufferView" : 1, "byteOffset" : 0, "componentType" : 5126, "count" : 3024, "type" : "VEC3", "max" : [1.0058494806289673, 1.0058495998382568, 0.08966787904500961], "min" : [-1.0058495998382568, -1.0058493614196777, 9.313225746154785E-10], "name" : "POSITION"}, {"bufferView" : 1, "byteOffset" : 12, "componentType" : 5126, "count" : 3024, "type" : "VEC3", "max" : [0.9946209192276001, 0.9946208000183105, 1.0000044107437134], "min" : [-0.9946213364601135, -0.9946210384368896, -1.0000044107437134], "name" : "NORMAL"}, {"bufferView" : 1, "byteOffset" : 24, "componentType" : 5126, "count" : 3024, "type" : "VEC2", "max" : [0.5214927792549133, -0.00011066925071645528], "min" : [0.00011066925071645528, -0.9998892545700073], "name" : "TEXCOORD_0"}, {"bufferView" : 0, "byteOffset" : 6048, "componentType" : 5123, "count" : 1344, "type" : "SCALAR", "max" : [1343], "min" : [0]}, {"bufferView" : 2, "byteOffset" : 0, "componentType" : 5126, "count" : 1344, "type" : "VEC3", "max" : [0.9029160737991333, 0.8796245455741882, 0.06488968431949615], "min" : [-0.9187401533126831, -0.8986985683441162, 0.04655248671770096], "name" : "POSITION"}, {"bufferView" : 2, "byteOffset" : 12, "componentType" : 5126, "count" : 1344, "type" : "VEC3", "max" : [0.7786886096000671, 0.7813462615013123, -0.6224395036697388], "min" : [-0.7744859457015991, -0.7781734466552734, -1.0000044107437134], "name" : "NORMAL"}, {"bufferView" : 2, "byteOffset" : 24, "componentType" : 5126, "count" : 1344, "type" : "VEC2", "max" : [0.9699442386627197, -0.008389487862586975], "min" : [0.006741099990904331, -0.9921485781669617], "name" : "TEXCOORD_0"}, {"bufferView" : 0, "byteOffset" : 8736, "componentType" : 5123, "count" : 10428, "type" : "SCALAR", "max" : [10427], "min" : [0]}, {"bufferView" : 3, "byteOffset" : 0, "componentType" : 5126, "count" : 10428, "type" : "VEC3", "max" : [0.9201499223709106, 0.8857601284980774, 0.2642515003681183], "min" : [-0.9249764680862427, -0.9048798084259033, 0.05831809341907501], "name" : "POSITION"}, {"bufferView" : 3, "byteOffset" : 12, "componentType" : 5126, "count" : 10428, "type" : "VEC3", "max" : [0.9885623455047607, 0.9951454401016235, 0.999993622303009], "min" : [-0.993051290512085, -0.9948751330375671, -0.6427137851715088], "name" : "NORMAL"}, {"bufferView" : 3, "byteOffset" : 24, "componentType" : 5126, "count" : 10428, "type" : "VEC2", "max" : [0.7836025357246399, -0.07079370319843292], "min" : [0.21598142385482788, -0.9020490050315857], "name" : "TEXCOORD_0"}, {"bufferView" : 0, "byteOffset" : 29592, "componentType" : 5123, "count" : 5376, "type" : "SCALAR", "max" : [5375], "min" : [0]}, {"bufferView" : 4, "byteOffset" : 0, "componentType" : 5126, "count" : 5376, "type" : "VEC3", "max" : [0.5271389484405518, 0.6297795176506042, 0.15922866761684418], "min" : [-0.7254880666732788, -0.37978237867355347, 0.09241819381713867], "name" : "POSITION"}, {"bufferView" : 4, "byteOffset" : 12, "componentType" : 5126, "count" : 5376, "type" : "VEC3", "max" : [0.7401853799819946, 0.8815890550613403, 0.999950110912323], "min" : [-0.8689010143280029, -0.8501461148262024, 0.43364542722702026], "name" : "NORMAL"}, {"bufferView" : 4, "byteOffset" : 24, "componentType" : 5126, "count" : 5376, "type" : "VEC2", "max" : [0.6565549969673157, -0.3183581233024597], "min" : [0.28742483258247375, -0.7761534452438354], "name" : "TEXCOORD_0"}], "asset" : {"generator" : "Aspose.3D 23.4.0", "version" : "2.0"}, "buffers" : [{"uri" : "data:application/octet-stream;base64,", "byteLength" : 685868}], "bufferViews" : [{"buffer" : 0, "byteOffset" : 0, "byteLength" : 40344, "target" : 34963}, {"buffer" : 0, "byteOffset" : 40348, "byteLength" : 96768, "byteStride" : 32, "target" : 34962}, {"buffer" : 0, "byteOffset" : 137120, "byteLength" : 43008, "byteStride" : 32, "target" : 34962}, {"buffer" : 0, "byteOffset" : 180132, "byteLength" : 333696, "byteStride" : 32, "target" : 34962}, {"buffer" : 0, "byteOffset" : 513832, "byteLength" : 172032, "byteStride" : 32, "target" : 34962}], "materials" : [{"name" : "Ceramic", "pbrMetallicRoughness" : {"baseColorFactor" : [0.800000011920929, 0.800000011920929, 0.800000011920929, 1], "metallicFactor" : 0, "roughnessFactor" : 0}, "emissiveFactor" : [0, 0, 0], "alphaMode" : "OPAQUE", "doubleSided" : false}, {"name" : "pizza_dough", "pbrMetallicRoughness" : {"baseColorFactor" : [1, 1, 1, 1], "metallicFactor" : 0, "roughnessFactor" : 0}, "emissiveFactor" : [0, 0, 0], "alphaMode" : "OPAQUE", "doubleSided" : false}, {"name" : "Pizza_00", "pbrMetallicRoughness" : {"baseColorFactor" : [0.800000011920929, 0.800000011920929, 0.800000011920929, 1], "metallicFactor" : 0, "roughnessFactor" : 0}, "emissiveFactor" : [0, 0, 0], "alphaMode" : "OPAQUE", "doubleSided" : false}, {"name" : "Pizza_01", "pbrMetallicRoughness" : {"baseColorFactor" : [0.800000011920929, 0.800000011920929, 0.800000011920929, 1], "metallicFactor" : 0, "roughnessFactor" : 0}, "emissiveFactor" : [0, 0, 0], "alphaMode" : "OPAQUE", "doubleSided" : false}], "meshes" : [{"primitives" : [{"attributes" : {"POSITION" : 1, "NORMAL" : 2, "TEXCOORD_0" : 3}, "indices" : 0, "material" : 0, "mode" : 4}, {"attributes" : {"POSITION" : 5, "NORMAL" : 6, "TEXCOORD_0" : 7}, "indices" : 4, "material" : 1, "mode" : 4}, {"attributes" : {"POSITION" : 9, "NORMAL" : 10, "TEXCOORD_0" : 11}, "indices" : 8, "material" : 2, "mode" : 4}, {"attributes" : {"POSITION" : 13, "NORMAL" : 14, "TEXCOORD_0" : 15}, "indices" : 12, "material" : 3, "mode" : 4}], "name" : "Circle.014"}], "nodes" : [{"matrix" : [113.5947494506836, 0, 0, 0, 0, -1.8506933774117584E-05, -113.59474945068209, 0, 0, 99.99999999999866, -1.6292067955264296E-05, 0, 0, 0, 0, 1], "mesh" : 0, "name" : "Pizza"}], "scene" : 0, "scenes" : [{"nodes" : [0]}]}