{"accessors" : [{"bufferView" : 0, "byteOffset" : 0, "componentType" : 5123, "count" : 9792, "type" : "SCALAR", "max" : [9791], "min" : [0]}, {"bufferView" : 1, "byteOffset" : 0, "componentType" : 5126, "count" : 9792, "type" : "VEC3", "max" : [0.25800779461860657, 0.25993940234184265, 0.01642364077270031], "min" : [-0.26361119747161865, -0.26087358593940735, -0.009716928005218506], "name" : "POSITION"}, {"bufferView" : 1, "byteOffset" : 12, "componentType" : 5126, "count" : 9792, "type" : "VEC3", "max" : [0.9891062378883362, 0.9784851670265198, 1.0000033378601074], "min" : [-0.9944841861724854, -0.9958726763725281, -0.9755746722221375], "name" : "NORMAL"}, {"bufferView" : 1, "byteOffset" : 24, "componentType" : 5126, "count" : 9792, "type" : "VEC2", "max" : [1, -0], "min" : [0, -1], "name" : "TEXCOORD_0"}, {"bufferView" : 0, "byteOffset" : 19584, "componentType" : 5123, "count" : 2496, "type" : "SCALAR", "max" : [2495], "min" : [0]}, {"bufferView" : 2, "byteOffset" : 0, "componentType" : 5126, "count" : 2496, "type" : "VEC3", "max" : [0.3026486933231354, 0.3026486933231354, 0.019239060580730438], "min" : [-0.3026486933231354, -0.3026486933231354, 0], "name" : "POSITION"}, {"bufferView" : 2, "byteOffset" : 12, "componentType" : 5126, "count" : 2496, "type" : "VEC3", "max" : [0.9965274930000305, 0.9965274930000305, 1.0000044107437134], "min" : [-0.9965274930000305, -0.9965274930000305, -1.0000044107437134], "name" : "NORMAL"}, {"bufferView" : 2, "byteOffset" : 24, "componentType" : 5126, "count" : 2496, "type" : "VEC2", "max" : [0.9869433045387268, -0.027378199622035027], "min" : [0.005191266071051359, -0.9601703882217407], "name" : "TEXCOORD_0"}, {"bufferView" : 0, "byteOffset" : 24576, "componentType" : 5123, "count" : 3642, "type" : "SCALAR", "max" : [3641], "min" : [0]}, {"bufferView" : 3, "byteOffset" : 0, "componentType" : 5126, "count" : 3642, "type" : "VEC3", "max" : [0.2799263000488281, 0.2825179100036621, 0.04769175872206688], "min" : [-0.2801066040992737, -0.28310900926589966, 0.01738470047712326], "name" : "POSITION"}, {"bufferView" : 3, "byteOffset" : 12, "componentType" : 5126, "count" : 3642, "type" : "VEC3", "max" : [0.9999552965164185, 0.999406635761261, 1.000002384185791], "min" : [-0.9980795979499817, -0.9993926882743835, -1.0000044107437134], "name" : "NORMAL"}, {"bufferView" : 3, "byteOffset" : 24, "componentType" : 5126, "count" : 3642, "type" : "VEC2", "max" : [0.9934415817260742, -0.005741893779486418], "min" : [0.004958391189575195, -0.9980580806732178], "name" : "TEXCOORD_0"}, {"bufferView" : 0, "byteOffset" : 31860, "componentType" : 5123, "count" : 576, "type" : "SCALAR", "max" : [575], "min" : [0]}, {"bufferView" : 4, "byteOffset" : 0, "componentType" : 5126, "count" : 576, "type" : "VEC3", "max" : [0.08339004963636398, 0.05475037917494774, 0.02860766090452671], "min" : [-0.06550943106412888, -0.062041278928518295, -0.00973963737487793], "name" : "POSITION"}, {"bufferView" : 4, "byteOffset" : 12, "componentType" : 5126, "count" : 576, "type" : "VEC3", "max" : [0.8303658962249756, 0.7560933828353882, 0.9990518093109131], "min" : [-0.8471999168395996, -0.5120538473129272, 0.3327242136001587], "name" : "NORMAL"}, {"bufferView" : 4, "byteOffset" : 24, "componentType" : 5126, "count" : 576, "type" : "VEC2", "max" : [0.9855644106864929, -0.01635771058499813], "min" : [0.014435580000281334, -0.9810950756072998], "name" : "TEXCOORD_0"}, {"bufferView" : 0, "byteOffset" : 33012, "componentType" : 5123, "count" : 17088, "type" : "SCALAR", "max" : [17087], "min" : [0]}, {"bufferView" : 5, "byteOffset" : 0, "componentType" : 5126, "count" : 17088, "type" : "VEC3", "max" : [0.04064594954252243, 0.3158990144729614, 0.017663119360804558], "min" : [-0.42697569727897644, -0.12405870109796524, -0.0052293529734015465], "name" : "POSITION"}, {"bufferView" : 5, "byteOffset" : 12, "componentType" : 5126, "count" : 17088, "type" : "VEC3", "max" : [0.8129560947418213, 0.8248162269592285, 1.0000032186508179], "min" : [-0.8447825312614441, -0.8372061252593994, -1.000001311302185], "name" : "NORMAL"}, {"bufferView" : 5, "byteOffset" : 24, "componentType" : 5126, "count" : 17088, "type" : "VEC2", "max" : [0.9450076222419739, -0.056827839463949203], "min" : [0.022887220606207848, -0.975126326084137], "name" : "TEXCOORD_0"}, {"bufferView" : 0, "byteOffset" : 67188, "componentType" : 5123, "count" : 8988, "type" : "SCALAR", "max" : [8987], "min" : [0]}, {"bufferView" : 6, "byteOffset" : 0, "componentType" : 5126, "count" : 8988, "type" : "VEC3", "max" : [0.22835320234298706, 0.26124489307403564, 0.004520415794104338], "min" : [-0.1754107028245926, -0.1289592981338501, -0.010680549778044224], "name" : "POSITION"}, {"bufferView" : 6, "byteOffset" : 12, "componentType" : 5126, "count" : 8988, "type" : "VEC3", "max" : [0.7918221950531006, 0.8019489049911499, 0.9995393753051758], "min" : [-0.8117511868476868, -0.8071390986442566, -0.9995393753051758], "name" : "NORMAL"}, {"bufferView" : 6, "byteOffset" : 24, "componentType" : 5126, "count" : 8988, "type" : "VEC2", "max" : [0.9908478260040283, -0.016285350546240807], "min" : [0.01110856980085373, -0.9849942922592163], "name" : "TEXCOORD_0"}], "asset" : {"generator" : "Aspose.3D 23.4.0", "version" : "2.0"}, "buffers" : [{"uri" : "data:application/octet-stream;base64,", "byteLength" : 1447816}], "bufferViews" : [{"buffer" : 0, "byteOffset" : 0, "byteLength" : 85164, "target" : 34963}, {"buffer" : 0, "byteOffset" : 85168, "byteLength" : 313344, "byteStride" : 32, "target" : 34962}, {"buffer" : 0, "byteOffset" : 398516, "byteLength" : 79872, "byteStride" : 32, "target" : 34962}, {"buffer" : 0, "byteOffset" : 478392, "byteLength" : 116544, "byteStride" : 32, "target" : 34962}, {"buffer" : 0, "byteOffset" : 594940, "byteLength" : 18432, "byteStride" : 32, "target" : 34962}, {"buffer" : 0, "byteOffset" : 613376, "byteLength" : 546816, "byteStride" : 32, "target" : 34962}, {"buffer" : 0, "byteOffset" : 1160196, "byteLength" : 287616, "byteStride" : 32, "target" : 34962}], "images" : [{"uri" : "Cheese_diff.png"}, {"uri" : "Wood_diff.png"}, {"uri" : "Pizza_diff.png.001.png"}, {"uri" : "Leaf_diff.png.001.png"}, {"uri" : "Salami_diff.png.001.png"}, {"uri" : "Tom_diff.png.001.png"}], "materials" : [{"name" : "Cheese", "pbrMetallicRoughness" : {"baseColorFactor" : [0.8, 0.8, 0.8, 1], "baseColorTexture" : {"index" : 0, "texCoord" : 0}, "metallicFactor" : 0, "roughnessFactor" : 0}, "emissiveFactor" : [0, 0, 0], "alphaMode" : "OPAQUE", "doubleSided" : false}, {"name" : "Deck", "pbrMetallicRoughness" : {"baseColorFactor" : [0.8, 0.8, 0.8, 1], "baseColorTexture" : {"index" : 1, "texCoord" : 0}, "metallicFactor" : 0, "roughnessFactor" : 0}, "emissiveFactor" : [0, 0, 0], "alphaMode" : "OPAQUE", "doubleSided" : false}, {"name" : "Pizza", "pbrMetallicRoughness" : {"baseColorFactor" : [0.8, 0.8, 0.8, 1], "baseColorTexture" : {"index" : 2, "texCoord" : 0}, "metallicFactor" : 0, "roughnessFactor" : 0}, "emissiveFactor" : [0, 0, 0], "alphaMode" : "OPAQUE", "doubleSided" : false}, {"name" : "Leaf", "pbrMetallicRoughness" : {"baseColorFactor" : [0.8, 0.8, 0.8, 1], "baseColorTexture" : {"index" : 3, "texCoord" : 0}, "metallicFactor" : 0, "roughnessFactor" : 0}, "emissiveFactor" : [0, 0, 0], "alphaMode" : "OPAQUE", "doubleSided" : false}, {"name" : "Salami", "pbrMetallicRoughness" : {"baseColorFactor" : [0.8, 0.8, 0.8, 1], "baseColorTexture" : {"index" : 4, "texCoord" : 0}, "metallicFactor" : 0, "roughnessFactor" : 0}, "emissiveFactor" : [0, 0, 0], "alphaMode" : "OPAQUE", "doubleSided" : false}, {"name" : "Tomato", "pbrMetallicRoughness" : {"baseColorFactor" : [0.8, 0.8, 0.8, 1], "baseColorTexture" : {"index" : 5, "texCoord" : 0}, "metallicFactor" : 0, "roughnessFactor" : 0}, "emissiveFactor" : [0, 0, 0], "alphaMode" : "OPAQUE", "doubleSided" : false}], "meshes" : [{"primitives" : [{"attributes" : {"POSITION" : 1, "NORMAL" : 2, "TEXCOORD_0" : 3}, "indices" : 0, "material" : 0, "mode" : 4}], "name" : ""}, {"primitives" : [{"attributes" : {"POSITION" : 5, "NORMAL" : 6, "TEXCOORD_0" : 7}, "indices" : 4, "material" : 1, "mode" : 4}], "name" : ""}, {"primitives" : [{"attributes" : {"POSITION" : 9, "NORMAL" : 10, "TEXCOORD_0" : 11}, "indices" : 8, "material" : 2, "mode" : 4}], "name" : ""}, {"primitives" : [{"attributes" : {"POSITION" : 13, "NORMAL" : 14, "TEXCOORD_0" : 15}, "indices" : 12, "material" : 3, "mode" : 4}], "name" : ""}, {"primitives" : [{"attributes" : {"POSITION" : 17, "NORMAL" : 18, "TEXCOORD_0" : 19}, "indices" : 16, "material" : 4, "mode" : 4}], "name" : ""}, {"primitives" : [{"attributes" : {"POSITION" : 21, "NORMAL" : 22, "TEXCOORD_0" : 23}, "indices" : 20, "material" : 5, "mode" : 4}], "name" : ""}], "nodes" : [{"matrix" : [1, 0, 0, 0, 0, 1, 0, 0, 0, 0, 1, 0, 0.0028904, 0.000403583, 0.04075718, 1], "mesh" : 0, "name" : "Cheese"}, {"matrix" : [1, 0, 0, 0, 0, 1, 0, 0, 0, 0, 1, 0, 0.001022566, -0.000417039, -0.005145812, 1], "mesh" : 1, "name" : "Wood_deck"}, {"matrix" : [1, 0, 0, 0, 0, 1, 0, 0, 0, 0, 1, 0, 0, 0, -0.0054831, 1], "mesh" : 2, "name" : "Pizza"}, {"matrix" : [1, 0, 0, 0, 0, 1, 0, 0, 0, 0, 1, 0, 0.008985441, 0.01510115, 0.0616051, 1], "mesh" : 3, "name" : "Leaves"}, {"matrix" : [1, 0, 0, 0, 0, 1, 0, 0, 0, 0, 1, 0, 0.1833228, -0.08677097, 0.0462728, 1], "mesh" : 4, "name" : "Salami"}, {"matrix" : [1, 0, 0, 0, 0, 1, 0, 0, 0, 0, 1, 0, 0.002432624, -0.06639483, 0.05571778, 1], "mesh" : 5, "name" : "Tomatoes"}], "samplers" : [{"magFilter" : 9729, "minFilter" : 9987, "wrapS" : 10497, "wrapT" : 10497}, {"magFilter" : 9729, "minFilter" : 9987, "wrapS" : 10497, "wrapT" : 10497}, {"magFilter" : 9729, "minFilter" : 9987, "wrapS" : 10497, "wrapT" : 10497}, {"magFilter" : 9729, "minFilter" : 9987, "wrapS" : 10497, "wrapT" : 10497}, {"magFilter" : 9729, "minFilter" : 9987, "wrapS" : 10497, "wrapT" : 10497}, {"magFilter" : 9729, "minFilter" : 9987, "wrapS" : 10497, "wrapT" : 10497}], "scene" : 0, "scenes" : [{"nodes" : [0, 1, 2, 3, 4, 5]}], "textures" : [{"sampler" : 0, "source" : 0, "name" : "Cheese_diff_png"}, {"sampler" : 1, "source" : 1, "name" : "Wood_diff_png"}, {"sampler" : 2, "source" : 2, "name" : "Pizza_diff_png_001"}, {"sampler" : 3, "source" : 3, "name" : "Leaf_diff_png_001"}, {"sampler" : 4, "source" : 4, "name" : "Salami_diff_png_001"}, {"sampler" : 5, "source" : 5, "name" : "Tom_diff_png_001"}]}