{
	"asset":{
		"generator":"Khronos glTF Blender I/O v3.5.30",
		"version":"2.0"
	},
	"extensionsUsed":[
		"KHR_materials_specular",
		"KHR_materials_ior"
	],
	"scene":0,
	"scenes":[
		{
			"name":"Scene",
			"nodes":[
				0
			]
		}
	],
	"nodes":[
		{
			"mesh":0,
			"name":"Pizza",
			"scale":[
				1.1359474658966064,
				1,
				1.1359474658966064
			]
		}
	],
	"materials":[
		{
			"doubleSided":true,
			"extensions":{
				"KHR_materials_specular":{
					"specularColorFactor":[
						0.45864373252121016,
						0.45864373252121016,
						0.45864373252121016
					]
				},
				"KHR_materials_ior":{
					"ior":1.4500000476837158
				}
			},
			"name":"Ceramic",
			"pbrMetallicRoughness":{
				"baseColorFactor":[
					0.800000011920929,
					0.800000011920929,
					0.800000011920929,
					1
				],
				"metallicFactor":0,
				"roughnessFactor":0.19914039969444275
			}
		},
		{
			"doubleSided":true,
			"extensions":{
				"KHR_materials_specular":{
					"specularColorFactor":[
						0,
						0,
						0
					]
				},
				"KHR_materials_ior":{
					"ior":1.4500000476837158
				}
			},
			"name":"pizza_dough",
			"pbrMetallicRoughness":{
				"metallicFactor":0
			}
		},
		{
			"doubleSided":true,
			"extensions":{
				"KHR_materials_specular":{
					"specularColorTexture":{
						"index":0
					}
				},
				"KHR_materials_ior":{
					"ior":1.4500000476837158
				}
			},
			"name":"Pizza_00",
			"normalTexture":{
				"index":1,
				"scale":0.10000000149011612
			},
			"pbrMetallicRoughness":{
				"baseColorTexture":{
					"index":2
				},
				"metallicFactor":0,
				"roughnessFactor":0.5
			}
		},
		{
			"doubleSided":true,
			"extensions":{
				"KHR_materials_specular":{
					"specularColorTexture":{
						"index":3
					}
				},
				"KHR_materials_ior":{
					"ior":1.4500000476837158
				}
			},
			"name":"Pizza_01",
			"normalTexture":{
				"index":4,
				"scale":0.10000000149011612
			},
			"pbrMetallicRoughness":{
				"baseColorTexture":{
					"index":5
				},
				"metallicFactor":0,
				"roughnessFactor":0.5
			}
		}
	],
	"meshes":[
		{
			"name":"Circle.014",
			"primitives":[
				{
					"attributes":{
						"POSITION":0,
						"TEXCOORD_0":1,
						"NORMAL":2
					},
					"indices":3,
					"material":0
				},
				{
					"attributes":{
						"POSITION":4,
						"TEXCOORD_0":5,
						"NORMAL":6
					},
					"indices":7,
					"material":1
				},
				{
					"attributes":{
						"POSITION":8,
						"TEXCOORD_0":9,
						"NORMAL":10
					},
					"indices":11,
					"material":2
				},
				{
					"attributes":{
						"POSITION":12,
						"TEXCOORD_0":13,
						"NORMAL":14
					},
					"indices":15,
					"material":3
				}
			]
		}
	],
	"textures":[
		{
			"sampler":0,
			"source":0
		},
		{
			"sampler":0,
			"source":1
		},
		{
			"sampler":0,
			"source":2
		},
		{
			"sampler":0,
			"source":0
		},
		{
			"sampler":0,
			"source":1
		},
		{
			"sampler":0,
			"source":2
		}
	],
	"images":[
		{
			"mimeType":"image/png",
			"name":"Image",
			"uri":"Image.png"
		},
		{
			"mimeType":"image/jpeg",
			"name":"pizza_DISP",
			"uri":"pizza_DISP.jpg"
		},
		{
			"mimeType":"image/jpeg",
			"name":"PIZZA",
			"uri":"PIZZA.jpg"
		}
	],
	"accessors":[
		{
			"bufferView":0,
			"componentType":5126,
			"count":558,
			"max":[
				1.0058494806289673,
				0.08966787904500961,
				1.0058493614196777
			],
			"min":[
				-1.0058495998382568,
				9.313225746154785e-10,
				-1.0058495998382568
			],
			"type":"VEC3"
		},
		{
			"bufferView":1,
			"componentType":5126,
			"count":558,
			"type":"VEC2"
		},
		{
			"bufferView":2,
			"componentType":5126,
			"count":558,
			"type":"VEC3"
		},
		{
			"bufferView":3,
			"componentType":5123,
			"count":3024,
			"type":"SCALAR"
		},
		{
			"bufferView":4,
			"componentType":5126,
			"count":398,
			"max":[
				0.9029160737991333,
				0.06488968431949615,
				0.8986985683441162
			],
			"min":[
				-0.9187401533126831,
				0.04655248671770096,
				-0.8796245455741882
			],
			"type":"VEC3"
		},
		{
			"bufferView":5,
			"componentType":5126,
			"count":398,
			"type":"VEC2"
		},
		{
			"bufferView":6,
			"componentType":5126,
			"count":398,
			"type":"VEC3"
		},
		{
			"bufferView":7,
			"componentType":5123,
			"count":1344,
			"type":"SCALAR"
		},
		{
			"bufferView":8,
			"componentType":5126,
			"count":2337,
			"max":[
				0.9201499223709106,
				0.2642515003681183,
				0.9048798084259033
			],
			"min":[
				-0.9249764680862427,
				0.05831809341907501,
				-0.8857601284980774
			],
			"type":"VEC3"
		},
		{
			"bufferView":9,
			"componentType":5126,
			"count":2337,
			"type":"VEC2"
		},
		{
			"bufferView":10,
			"componentType":5126,
			"count":2337,
			"type":"VEC3"
		},
		{
			"bufferView":11,
			"componentType":5123,
			"count":10428,
			"type":"SCALAR"
		},
		{
			"bufferView":12,
			"componentType":5126,
			"count":1183,
			"max":[
				0.5271389484405518,
				0.15922866761684418,
				0.37978237867355347
			],
			"min":[
				-0.7254880666732788,
				0.09241819381713867,
				-0.6297795176506042
			],
			"type":"VEC3"
		},
		{
			"bufferView":13,
			"componentType":5126,
			"count":1183,
			"type":"VEC2"
		},
		{
			"bufferView":14,
			"componentType":5126,
			"count":1183,
			"type":"VEC3"
		},
		{
			"bufferView":15,
			"componentType":5123,
			"count":5376,
			"type":"SCALAR"
		}
	],
	"bufferViews":[
		{
			"buffer":0,
			"byteLength":6696,
			"byteOffset":0,
			"target":34962
		},
		{
			"buffer":0,
			"byteLength":4464,
			"byteOffset":6696,
			"target":34962
		},
		{
			"buffer":0,
			"byteLength":6696,
			"byteOffset":11160,
			"target":34962
		},
		{
			"buffer":0,
			"byteLength":6048,
			"byteOffset":17856,
			"target":34963
		},
		{
			"buffer":0,
			"byteLength":4776,
			"byteOffset":23904,
			"target":34962
		},
		{
			"buffer":0,
			"byteLength":3184,
			"byteOffset":28680,
			"target":34962
		},
		{
			"buffer":0,
			"byteLength":4776,
			"byteOffset":31864,
			"target":34962
		},
		{
			"buffer":0,
			"byteLength":2688,
			"byteOffset":36640,
			"target":34963
		},
		{
			"buffer":0,
			"byteLength":28044,
			"byteOffset":39328,
			"target":34962
		},
		{
			"buffer":0,
			"byteLength":18696,
			"byteOffset":67372,
			"target":34962
		},
		{
			"buffer":0,
			"byteLength":28044,
			"byteOffset":86068,
			"target":34962
		},
		{
			"buffer":0,
			"byteLength":20856,
			"byteOffset":114112,
			"target":34963
		},
		{
			"buffer":0,
			"byteLength":14196,
			"byteOffset":134968,
			"target":34962
		},
		{
			"buffer":0,
			"byteLength":9464,
			"byteOffset":149164,
			"target":34962
		},
		{
			"buffer":0,
			"byteLength":14196,
			"byteOffset":158628,
			"target":34962
		},
		{
			"buffer":0,
			"byteLength":10752,
			"byteOffset":172824,
			"target":34963
		}
	],
	"samplers":[
		{
			"magFilter":9729,
			"minFilter":9987
		}
	],
	"buffers":[
		{
			"byteLength":183576,
			"uri":"pizza.bin"
		}
	]
}
