{
	"asset":{
		"generator":"Khronos glTF Blender I/O v3.5.30",
		"version":"2.0"
	},
	"scene":0,
	"scenes":[
		{
			"name":"Scene",
			"nodes":[
				4
			]
		}
	],
	"nodes":[
		{
			"name":"Camera01_Target_1",
			"translation":[
				46.400291442871094,
				-3.434856653213501,
				1.653739333152771
			]
		},
		{
			"mesh":0,
			"name":"Cylinder01",
			"translation":[
				43.37580490112305,
				0.25262451171875,
				2.657139778137207
			]
		},
		{
			"name":"Looks"
		},
		{
			"name":"Spot01_Target_1",
			"translation":[
				44.03748321533203,
				0,
				-6.957393646240234
			]
		},
		{
			"children":[
				0,
				1,
				2,
				3
			],
			"name":"AI57_004"
		}
	],
	"materials":[
		{
			"doubleSided":true,
			"name":"a02___Default",
			"pbrMetallicRoughness":{
				"baseColorTexture":{
					"index":0
				},
				"metallicFactor":0,
				"roughnessFactor":0.5
			}
		}
	],
	"meshes":[
		{
			"name":"Cylinder01",
			"primitives":[
				{
					"attributes":{
						"POSITION":0,
						"TEXCOORD_0":1,
						"NORMAL":2
					},
					"indices":3,
					"material":0
				}
			]
		}
	],
	"textures":[
		{
			"sampler":0,
			"source":0
		}
	],
	"images":[
		{
			"mimeType":"image/jpeg",
			"name":"PepperoniPizza-full",
			"uri":"PepperoniPizza-full.jpg"
		}
	],
	"accessors":[
		{
			"bufferView":0,
			"componentType":5126,
			"count":6338,
			"max":[
				13.0111722946167,
				1.155962347984314,
				13.013337135314941
			],
			"min":[
				-12.979272842407227,
				-0.029802419245243073,
				-13.073193550109863
			],
			"type":"VEC3"
		},
		{
			"bufferView":1,
			"componentType":5126,
			"count":6338,
			"type":"VEC2"
		},
		{
			"bufferView":2,
			"componentType":5126,
			"count":6338,
			"type":"VEC3"
		},
		{
			"bufferView":3,
			"componentType":5123,
			"count":38016,
			"type":"SCALAR"
		}
	],
	"bufferViews":[
		{
			"buffer":0,
			"byteLength":76056,
			"byteOffset":0,
			"target":34962
		},
		{
			"buffer":0,
			"byteLength":50704,
			"byteOffset":76056,
			"target":34962
		},
		{
			"buffer":0,
			"byteLength":76056,
			"byteOffset":126760,
			"target":34962
		},
		{
			"buffer":0,
			"byteLength":76032,
			"byteOffset":202816,
			"target":34963
		}
	],
	"samplers":[
		{
			"magFilter":9729,
			"minFilter":9987
		}
	],
	"buffers":[
		{
			"byteLength":278848,
			"uri":"pizza.bin"
		}
	]
}
