{
	"asset":{
		"generator":"Khronos glTF Blender I/O v3.5.30",
		"version":"2.0"
	},
	"extensionsUsed":[
		"KHR_materials_specular",
		"KHR_materials_ior"
	],
	"scene":0,
	"scenes":[
		{
			"name":"Scene",
			"nodes":[
				0
			]
		}
	],
	"nodes":[
		{
			"mesh":0,
			"name":"Cylinder002",
			"scale":[
				0.009999999776482582,
				0.009999999776482582,
				0.009999999776482582
			]
		}
	],
	"materials":[
		{
			"doubleSided":true,
			"extensions":{
				"KHR_materials_specular":{
					"specularColorFactor":[
						0,
						0,
						0
					]
				},
				"KHR_materials_ior":{
					"ior":1.4500000476837158
				}
			},
			"name":"07 - Default",
			"pbrMetallicRoughness":{
				"baseColorTexture":{
					"index":0
				},
				"roughnessFactor":0.858578622341156
			}
		}
	],
	"meshes":[
		{
			"name":"Cylinder002",
			"primitives":[
				{
					"attributes":{
						"POSITION":0,
						"TEXCOORD_0":1,
						"NORMAL":2
					},
					"indices":3,
					"material":0
				}
			]
		}
	],
	"textures":[
		{
			"sampler":0,
			"source":0
		}
	],
	"images":[
		{
			"mimeType":"image/png",
			"name":"Pizza_Albedo.tga",
			"uri":"Pizza_Albedo_tga.png"
		}
	],
	"accessors":[
		{
			"bufferView":0,
			"componentType":5126,
			"count":326,
			"max":[
				19.396404266357422,
				2.899306058883667,
				19.396404266357422
			],
			"min":[
				-19.396404266357422,
				0.009139418601989746,
				-19.396404266357422
			],
			"type":"VEC3"
		},
		{
			"bufferView":1,
			"componentType":5126,
			"count":326,
			"type":"VEC2"
		},
		{
			"bufferView":2,
			"componentType":5126,
			"count":326,
			"type":"VEC3"
		},
		{
			"bufferView":3,
			"componentType":5123,
			"count":1728,
			"type":"SCALAR"
		}
	],
	"bufferViews":[
		{
			"buffer":0,
			"byteLength":3912,
			"byteOffset":0,
			"target":34962
		},
		{
			"buffer":0,
			"byteLength":2608,
			"byteOffset":3912,
			"target":34962
		},
		{
			"buffer":0,
			"byteLength":3912,
			"byteOffset":6520,
			"target":34962
		},
		{
			"buffer":0,
			"byteLength":3456,
			"byteOffset":10432,
			"target":34963
		}
	],
	"samplers":[
		{
			"magFilter":9729,
			"minFilter":9987
		}
	],
	"buffers":[
		{
			"byteLength":13888,
			"uri":"pizza.bin"
		}
	]
}
